<svg t="1713431562066" class="icon" viewBox="0 0 1024 1024" version="1.1" xmlns="http://www.w3.org/2000/svg" p-id="6399" width="32" height="32"><path d="M592 768h-160c-26.6 0-48-21.4-48-48V384h-175.4c-35.6 0-53.4-43-28.2-68.2L484.6 11.4c15-15 39.6-15 54.6 0l304.4 304.4c25.2 25.2 7.4 68.2-28.2 68.2H640v336c0 26.6-21.4 48-48 48z m432-16v224c0 26.6-21.4 48-48 48H48c-26.6 0-48-21.4-48-48V752c0-26.6 21.4-48 48-48h272v16c0 61.8 50.2 112 112 112h160c61.8 0 112-50.2 112-112v-16h272c26.6 0 48 21.4 48 48z m-248 176c0-22-18-40-40-40s-40 18-40 40 18 40 40 40 40-18 40-40z m128 0c0-22-18-40-40-40s-40 18-40 40 18 40 40 40 40-18 40-40z" p-id="6400" fill="#ffffff"></path></svg>