<?xml version="1.0" standalone="no"?><!DOCTYPE svg PUBLIC "-//W3C//DTD SVG 1.1//EN" "http://www.w3.org/Graphics/SVG/1.1/DTD/svg11.dtd"><svg height="188" node-id="1" sillyvg="true" template-height="188" template-width="280" version="1.1" width="280" xmlns="http://www.w3.org/2000/svg" xmlns:xlink="http://www.w3.org/1999/xlink"><defs node-id="88"><linearGradient gradientUnits="objectBoundingBox" id="linearGradient-1" node-id="7" spreadMethod="pad" x1="0.5" x2="0.5" y1="0" y2="0.99606735"><stop offset="0" stop-color="#c0c4cc"/><stop offset="1" stop-color="#f7fdfe" stop-opacity="0"/></linearGradient><linearGradient gradientUnits="objectBoundingBox" id="linearGradient1" node-id="96" spreadMethod="pad" x1="0.5" x2="0.5" y1="0" y2="1"><stop offset="0" stop-color="#e3e3e3"/><stop offset="0.4474621" stop-color="#e3e5e8"/><stop offset="1" stop-color="#c0c4cc"/></linearGradient><linearGradient gradientUnits="objectBoundingBox" id="linearGradient-2" node-id="10" spreadMethod="pad" x1="0.5" x2="0.5" y1="0" y2="1"><stop offset="0" stop-color="#e3e3e3"/><stop offset="0.4474621" stop-color="#e3e5e8"/><stop offset="1" stop-color="#c0c4cc"/></linearGradient><linearGradient gradientUnits="objectBoundingBox" id="linearGradient-3" node-id="14" spreadMethod="pad" x1="0.5" x2="0.5" y1="0.00071262673" y2="1"><stop offset="0.0007126267" stop-color="#ffffff"/><stop offset="0.4474621" stop-color="#e3e5e8"/><stop offset="1" stop-color="#c0c4cc"/></linearGradient><linearGradient gradientUnits="objectBoundingBox" id="linearGradient-14" node-id="43" spreadMethod="pad" x1="1.1088529" x2="0.43100062" y1="0.48609075" y2="0.5180712"><stop offset="0.00047508447" stop-color="#ebecef"/><stop offset="1" stop-color="#c0c4cc"/></linearGradient><linearGradient gradientUnits="objectBoundingBox" id="linearGradient-15" node-id="46" spreadMethod="pad" x1="0.5" x2="0.5" y1="0" y2="1"><stop offset="0" stop-color="#e3e3e3"/><stop offset="0.4474621" stop-color="#e3e5e8"/><stop offset="1" stop-color="#c0c4cc"/></linearGradient><linearGradient gradientUnits="objectBoundingBox" id="linearGradient2" node-id="135" spreadMethod="pad" x1="0.5" x2="0.5" y1="0" y2="1"><stop offset="0" stop-color="#e3e3e3"/><stop offset="0.4474621" stop-color="#e3e5e8"/><stop offset="1" stop-color="#c0c4cc"/></linearGradient><linearGradient gradientUnits="objectBoundingBox" id="linearGradient3" node-id="144" spreadMethod="pad" x1="0.5" x2="0.5" y1="0" y2="1"><stop offset="0" stop-color="#e3e3e3"/><stop offset="0.4474621" stop-color="#e3e5e8"/><stop offset="1" stop-color="#c0c4cc"/></linearGradient><linearGradient gradientUnits="objectBoundingBox" id="linearGradient4" node-id="153" spreadMethod="pad" x1="0.5" x2="0.5" y1="0" y2="1"><stop offset="0" stop-color="#e3e3e3"/><stop offset="0.4474621" stop-color="#e3e5e8"/><stop offset="1" stop-color="#c0c4cc"/></linearGradient><linearGradient gradientUnits="objectBoundingBox" id="linearGradient5" node-id="162" spreadMethod="pad" x1="0.5" x2="0.5" y1="0" y2="1"><stop offset="0" stop-color="#e3e3e3"/><stop offset="0.4474621" stop-color="#e3e5e8"/><stop offset="1" stop-color="#c0c4cc"/></linearGradient><linearGradient gradientUnits="objectBoundingBox" id="linearGradient-16" node-id="50" spreadMethod="pad" x1="0.5" x2="0.5" y1="0" y2="1"><stop offset="0" stop-color="#e3e3e3"/><stop offset="0.4474621" stop-color="#e3e5e8"/><stop offset="1" stop-color="#c0c4cc"/></linearGradient><filter height="11.198883" id="filter-5" node-id="19" width="11.11631" x="65.24691" y="23.30056"><feOffset color-interpolation-filters="linearRGB" dx="-1" dy="1" in="SourceAlpha" result="shadowOffsetInner1"/><feComposite color-interpolation-filters="linearRGB" in="shadowOffsetInner1" in2="SourceAlpha" k1="0" k2="-1" k3="1" k4="0" operator="arithmetic" result="shadowInnerInner1"/><feColorMatrix color-interpolation-filters="linearRGB" in="shadowInnerInner1" result="result3" type="matrix" values="0 0 0 0 0.7529412 0 0 0 0 0.76862746 0 0 0 0 0.8 0 0 0 1 0"/></filter><filter height="9.502384" id="filter-7" node-id="24" width="9.432171" x="35.74527" y="41.148808"><feOffset color-interpolation-filters="linearRGB" dx="-1" dy="1" in="SourceAlpha" result="shadowOffsetInner1"/><feComposite color-interpolation-filters="linearRGB" in="shadowOffsetInner1" in2="SourceAlpha" k1="0" k2="-1" k3="1" k4="0" operator="arithmetic" result="shadowInnerInner1"/><feColorMatrix color-interpolation-filters="linearRGB" in="shadowInnerInner1" result="result3" type="matrix" values="0 0 0 0 0.7529412 0 0 0 0 0.76862746 0 0 0 0 0.8 0 0 0 1 0"/></filter><filter height="6.099205" id="filter-9" node-id="29" width="6.0588417" x="45.013435" y="16.500397"><feOffset color-interpolation-filters="linearRGB" dx="-1" dy="1" in="SourceAlpha" result="shadowOffsetInner1"/><feComposite color-interpolation-filters="linearRGB" in="shadowOffsetInner1" in2="SourceAlpha" k1="0" k2="-1" k3="1" k4="0" operator="arithmetic" result="shadowInnerInner1"/><feColorMatrix color-interpolation-filters="linearRGB" in="shadowInnerInner1" result="result3" type="matrix" values="0 0 0 0 0.7529412 0 0 0 0 0.76862746 0 0 0 0 0.8 0 0 0 1 0"/></filter><filter height="4.399315" id="filter-11" node-id="34" width="4.373024" x="69.45804" y="43.700344"><feOffset color-interpolation-filters="linearRGB" dx="-1" dy="1" in="SourceAlpha" result="shadowOffsetInner1"/><feComposite color-interpolation-filters="linearRGB" in="shadowOffsetInner1" in2="SourceAlpha" k1="0" k2="-1" k3="1" k4="0" operator="arithmetic" result="shadowInnerInner1"/><feColorMatrix color-interpolation-filters="linearRGB" in="shadowInnerInner1" result="result3" type="matrix" values="0 0 0 0 0.7529412 0 0 0 0 0.76862746 0 0 0 0 0.8 0 0 0 1 0"/></filter><filter height="6.0992126" id="filter-13" node-id="39" width="6.0588455" x="69.567795" y="59.08561"><feOffset color-interpolation-filters="linearRGB" dx="-1" dy="1" in="SourceAlpha" result="shadowOffsetInner1"/><feComposite color-interpolation-filters="linearRGB" in="shadowOffsetInner1" in2="SourceAlpha" k1="0" k2="-1" k3="1" k4="0" operator="arithmetic" result="shadowInnerInner1"/><feColorMatrix color-interpolation-filters="linearRGB" in="shadowInnerInner1" result="result3" type="matrix" values="0 0 0 0 0.7529412 0 0 0 0 0.76862746 0 0 0 0 0.8 0 0 0 1 0"/></filter></defs><g node-id="291"><g node-id="292"><g node-id="293"><path d="M 268.00 164.50 L 267.80 165.90 L 267.10 167.20 L 265.90 168.70 L 264.00 170.30 L 261.20 171.90 L 256.70 174.00 L 250.50 176.20 L 242.40 178.40 L 224.80 181.90 L 202.70 184.80 L 177.40 186.80 L 150.20 187.90 L 135.50 188.00 L 120.80 187.90 L 93.60 186.80 L 68.30 184.80 L 46.20 181.90 L 28.60 178.40 L 20.50 176.20 L 14.30 174.00 L 9.80 171.90 L 7.00 170.30 L 5.10 168.70 L 3.90 167.20 L 3.20 165.90 L 3.00 164.50 L 3.20 163.10 L 3.90 161.80 L 5.10 160.30 L 7.00 158.70 L 9.80 157.10 L 14.30 155.00 L 20.50 152.80 L 28.60 150.60 L 36.70 148.80 L 57.20 145.50 L 80.40 143.10 L 106.80 141.50 L 135.50 141.00 L 150.20 141.10 L 177.40 142.20 L 202.70 144.20 L 224.80 147.10 L 242.40 150.60 L 250.50 152.80 L 256.70 155.00 L 261.20 157.10 L 264.00 158.70 L 265.90 160.30 L 267.10 161.80 L 267.80 163.10 L 268.00 164.50 Z" fill="url(#linearGradient-1)" fill-rule="evenodd" group-id="1,2,3" id="椭圆形" node-id="58" stroke="none" target-height="47" target-width="265" target-x="3" target-y="141"/><g node-id="295"><path d="M 64.70 154.00 L 64.70 137.90 L 75.50 137.90 L 75.50 119.40 L 64.70 119.40 L 64.70 66.60 L 43.90 66.60 L 0.50 118.30 L 0.50 137.90 L 43.90 137.90 L 43.90 154.00 L 64.70 154.00 Z M 43.90 119.40 L 21.00 119.40 L 43.90 92.40 L 43.90 119.40 Z" fill="url(#linearGradient1)" fill-rule="evenodd" group-id="1,2,3,5" id="4" node-id="60" stroke="none" target-height="87.4" target-width="75" target-x="0.5" target-y="66.6"/><path d="M 250.70 154.00 L 250.70 137.90 L 261.50 137.90 L 261.50 119.40 L 250.70 119.40 L 250.70 66.60 L 229.90 66.60 L 186.50 118.30 L 186.50 137.90 L 229.90 137.90 L 229.90 154.00 L 250.70 154.00 Z M 229.90 119.40 L 207.00 119.40 L 229.90 92.40 L 229.90 119.40 Z" fill="url(#linearGradient-2)" fill-rule="evenodd" group-id="1,2,3,5" id="4" node-id="61" stroke="none" target-height="87.4" target-width="75" target-x="186.5" target-y="66.6"/><g node-id="296"><g node-id="297"><path d="M 170.20 115.00 L 168.80 122.60 L 166.00 129.30 L 163.40 133.50 L 160.40 137.20 L 156.90 140.50 L 153.10 143.40 L 148.90 145.70 L 144.40 147.50 L 137.20 149.10 L 129.60 149.20 L 122.10 147.80 L 115.30 145.00 L 111.10 142.40 L 107.40 139.40 L 104.10 135.90 L 101.30 132.00 L 99.00 127.90 L 97.20 123.30 L 95.60 116.20 L 95.50 108.50 L 96.90 101.00 L 99.70 94.20 L 102.30 90.00 L 105.30 86.30 L 108.80 83.00 L 112.60 80.10 L 116.80 77.80 L 121.30 76.00 L 128.50 74.40 L 136.10 74.30 L 143.60 75.80 L 150.40 78.50 L 154.50 81.10 L 158.30 84.10 L 161.60 87.60 L 164.40 91.50 L 166.70 95.70 L 168.50 100.20 L 170.10 107.40 L 170.20 115.00 Z" fill="url(#linearGradient-3)" fill-rule="evenodd" group-id="1,2,3,5,6,7" id="椭圆形" node-id="63" stroke="none" target-height="74.899994" target-width="74.7" target-x="95.5" target-y="74.3"/></g><g node-id="298"><g node-id="305"><path d="M 152.80 100.30 L 152.50 101.70 L 151.00 103.80 L 148.70 104.90 L 147.40 105.00 L 144.90 104.10 L 143.20 102.10 L 142.80 100.90 L 142.80 99.50 L 143.70 97.00 L 145.60 95.30 L 148.20 94.80 L 149.60 95.10 L 151.70 96.60 L 152.80 98.90 L 152.80 100.30 Z" fill="#e7e8ec" fill-rule="evenodd" group-id="1,2,3,5,6,8,15" node-id="236" stroke="none" target-height="10.199997" target-width="10" target-x="142.8" target-y="94.8"/></g><path d="M 152.80 100.30 L 152.50 101.70 L 151.00 103.80 L 148.70 104.90 L 147.40 105.00 L 144.90 104.10 L 143.20 102.10 L 142.80 100.90 L 142.80 99.50 L 143.70 97.00 L 145.60 95.30 L 148.20 94.80 L 149.60 95.10 L 151.70 96.60 L 152.80 98.90 L 152.80 100.30 Z" fill="#000000" fill-rule="evenodd" filter="url(#filter-5)" group-id="1,2,3,5,6,8,16" node-id="241" stroke="none" target-height="10.199997" target-width="10" target-x="142.8" target-y="94.8"/></g><g node-id="299"><g node-id="307"><path d="M 121.70 117.30 L 121.20 118.90 L 120.20 120.20 L 118.80 120.90 L 117.10 121.10 L 115.50 120.70 L 114.20 119.60 L 113.40 118.20 L 113.30 116.50 L 113.70 114.90 L 114.80 113.60 L 116.20 112.90 L 117.80 112.70 L 119.40 113.10 L 120.70 114.20 L 121.50 115.60 L 121.70 117.30 Z" fill="#e7e8ec" fill-rule="evenodd" group-id="1,2,3,5,6,9,17" node-id="248" stroke="none" target-height="8.400002" target-width="8.399994" target-x="113.3" target-y="112.7"/></g><path d="M 121.70 117.30 L 121.20 118.90 L 120.20 120.20 L 118.80 120.90 L 117.10 121.10 L 115.50 120.70 L 114.20 119.60 L 113.40 118.20 L 113.30 116.50 L 113.70 114.90 L 114.80 113.60 L 116.20 112.90 L 117.80 112.70 L 119.40 113.10 L 120.70 114.20 L 121.50 115.60 L 121.70 117.30 Z" fill="#000000" fill-rule="evenodd" filter="url(#filter-7)" group-id="1,2,3,5,6,9,18" node-id="253" stroke="none" target-height="8.400002" target-width="8.399994" target-x="113.3" target-y="112.7"/></g><g node-id="300"><g node-id="309"><path d="M 127.60 90.80 L 126.70 92.50 L 124.80 93.10 L 123.10 92.20 L 122.50 90.30 L 123.40 88.60 L 125.30 88.00 L 127.00 88.90 L 127.60 90.80 Z" fill="#e7e8ec" fill-rule="evenodd" group-id="1,2,3,5,6,10,19" node-id="260" stroke="none" target-height="5.0999985" target-width="5.0999985" target-x="122.5" target-y="88"/></g><path d="M 127.60 90.80 L 126.70 92.50 L 124.80 93.10 L 123.10 92.20 L 122.50 90.30 L 123.40 88.60 L 125.30 88.00 L 127.00 88.90 L 127.60 90.80 Z" fill="#000000" fill-rule="evenodd" filter="url(#filter-9)" group-id="1,2,3,5,6,10,20" node-id="265" stroke="none" target-height="5.0999985" target-width="5.0999985" target-x="122.5" target-y="88"/></g><g node-id="301"><g node-id="311"><path d="M 150.30 117.00 L 150.10 117.70 L 149.20 118.50 L 147.80 118.40 L 147.00 117.40 L 147.20 116.10 L 148.10 115.30 L 149.40 115.40 L 150.20 116.40 L 150.30 117.00 Z" fill="#e7e8ec" fill-rule="evenodd" group-id="1,2,3,5,6,11,21" node-id="272" stroke="none" target-height="3.199997" target-width="3.300003" target-x="147" target-y="115.3"/></g><path d="M 150.30 117.00 L 150.10 117.70 L 149.20 118.50 L 147.80 118.40 L 147.00 117.40 L 147.20 116.10 L 148.10 115.30 L 149.40 115.40 L 150.20 116.40 L 150.30 117.00 Z" fill="#000000" fill-rule="evenodd" filter="url(#filter-11)" group-id="1,2,3,5,6,11,22" node-id="277" stroke="none" target-height="3.199997" target-width="3.300003" target-x="147" target-y="115.3"/></g><g node-id="302"><g node-id="313"><path d="M 152.10 133.40 L 151.80 134.30 L 150.40 135.60 L 148.40 135.40 L 147.20 133.90 L 147.40 131.90 L 148.80 130.70 L 149.80 130.60 L 151.50 131.50 L 152.10 133.40 Z" fill="#e7e8ec" fill-rule="evenodd" group-id="1,2,3,5,6,12,23" node-id="284" stroke="none" target-height="5" target-width="4.900009" target-x="147.2" target-y="130.6"/></g><path d="M 152.10 133.40 L 151.80 134.30 L 150.40 135.60 L 148.40 135.40 L 147.20 133.90 L 147.40 131.90 L 148.80 130.70 L 149.80 130.60 L 151.50 131.50 L 152.10 133.40 Z" fill="#000000" fill-rule="evenodd" filter="url(#filter-13)" group-id="1,2,3,5,6,12,24" node-id="289" stroke="none" target-height="5" target-width="4.900009" target-x="147.2" target-y="130.6"/></g><g node-id="303"><path d="M 96.20 122.60 L 91.30 126.60 L 85.30 132.70 L 82.60 136.90 L 81.90 138.90 L 81.80 140.60 L 82.20 142.00 L 83.00 143.20 L 84.30 144.10 L 86.20 144.90 L 88.80 145.40 L 92.30 145.60 L 96.70 145.30 L 102.20 144.50 L 113.60 141.70 L 127.00 137.20 L 141.50 131.00 L 155.50 123.90 L 167.60 116.50 L 177.10 109.50 L 181.20 105.80 L 184.20 102.60 L 186.40 99.80 L 187.70 97.50 L 188.30 95.60 L 188.40 93.90 L 188.00 92.50 L 187.20 91.30 L 185.90 90.40 L 183.90 89.60 L 179.10 89.00 L 170.80 89.60 L 164.70 90.70" fill="none" group-id="1,2,3,5,6,13" id="椭圆形" node-id="79" stroke="url(#linearGradient-14)" stroke-linecap="round" stroke-width="2" target-height="56.600006" target-width="106.59999" target-x="81.8" target-y="89"/></g><path d="M 102.40 145.40 L 102.10 146.90 L 100.40 149.30 L 97.70 150.50 L 96.20 150.60 L 93.30 149.60 L 91.40 147.30 L 91.00 145.90 L 90.90 144.30 L 92.00 141.50 L 94.20 139.60 L 97.20 139.10 L 98.70 139.50 L 101.10 141.10 L 102.30 143.80 L 102.40 145.40 Z" fill="url(#linearGradient-15)" fill-rule="evenodd" group-id="1,2,3,5,6,14" id="椭圆形" node-id="80" stroke="none" target-height="11.5" target-width="11.5" target-x="90.9" target-y="139.1"/></g></g><path d="M 211.00 37.50 L 210.70 39.50 L 210.00 41.30 L 208.80 42.80 L 207.30 44.00 L 205.50 44.70 L 203.50 45.00 L 201.50 44.70 L 199.70 44.00 L 198.20 42.80 L 197.00 41.30 L 196.30 39.50 L 196.00 37.50 L 196.30 35.50 L 197.00 33.70 L 198.20 32.20 L 199.70 31.00 L 201.50 30.30 L 203.50 30.00 L 205.50 30.30 L 207.30 31.00 L 208.80 32.20 L 210.00 33.70 L 210.70 35.50 L 211.00 37.50 Z" fill="url(#linearGradient2)" fill-rule="evenodd" group-id="1,2,3" id="椭圆形备份" node-id="81" stroke="none" target-height="15" target-width="15" target-x="196" target-y="30"/><path d="M 280.00 150.00 L 279.80 151.20 L 279.10 152.10 L 278.20 152.80 L 277.00 153.00 L 275.80 152.80 L 274.90 152.10 L 274.20 151.20 L 274.00 150.00 L 274.20 148.80 L 274.90 147.90 L 275.80 147.20 L 277.00 147.00 L 278.20 147.20 L 279.10 147.90 L 279.80 148.80 L 280.00 150.00 Z" fill="url(#linearGradient3)" fill-rule="evenodd" group-id="1,2,3" id="椭圆形备份-3" node-id="82" stroke="none" target-height="6" target-width="6" target-x="274" target-y="147"/><path d="M 22.00 58.00 L 21.70 59.60 L 20.80 60.80 L 19.60 61.70 L 18.00 62.00 L 16.40 61.70 L 15.20 60.80 L 14.30 59.60 L 14.00 58.00 L 14.30 56.40 L 15.20 55.20 L 16.40 54.30 L 18.00 54.00 L 19.60 54.30 L 20.80 55.20 L 21.70 56.40 L 22.00 58.00 Z" fill="url(#linearGradient4)" fill-rule="evenodd" group-id="1,2,3" id="椭圆形备份-2" node-id="83" stroke="none" target-height="8" target-width="8" target-x="14" target-y="54"/></g><g node-id="294"><path d="M 106.60 1.00 L 106.00 0.40 L 101.40 0.10 L 96.80 1.30 L 94.80 2.50 L 91.50 5.70 L 87.50 7.60 L 84.90 10.00 L 84.00 11.70 L 84.60 12.40 L 88.90 11.80 L 88.90 12.10 L 91.80 15.20 L 94.90 18.10 L 95.20 18.10 L 94.60 22.40 L 95.30 23.00 L 95.80 22.90 L 98.00 21.20 L 99.30 19.50 L 101.30 15.50 L 104.50 12.20 L 105.70 10.20 L 106.90 5.60 L 106.60 1.00 Z M 100.90 10.10 L 99.90 10.80 L 98.90 11.00 L 97.80 10.80 L 96.90 10.10 L 96.20 9.20 L 96.00 8.10 L 96.20 7.10 L 96.90 6.10 L 97.80 5.50 L 98.90 5.30 L 99.90 5.50 L 100.90 6.10 L 101.50 7.10 L 101.70 8.10 L 101.50 9.20 L 100.90 10.10 Z" fill="url(#linearGradient5)" fill-rule="evenodd" group-id="1,2,4" id="形状" node-id="85" stroke="none" target-height="22.9" target-width="22.900002" target-x="84" target-y="0.1"/><path d="M 87.10 15.60 L 84.40 19.60 L 83.20 22.20 L 83.00 23.20 L 83.20 23.80 L 83.80 24.00 L 84.80 23.80 L 87.40 22.60 L 91.40 19.90 L 91.90 19.00 L 92.00 18.00 L 91.00 16.00 L 90.00 15.30 L 88.00 15.10 L 87.10 15.60 Z" fill="url(#linearGradient-16)" fill-rule="evenodd" group-id="1,2,4" id="路径" node-id="86" stroke="none" target-height="8.9" target-width="9" target-x="83" target-y="15.1"/></g></g></g></svg>