<svg xmlns="http://www.w3.org/2000/svg" xmlns:xlink="http://www.w3.org/1999/xlink" fill="none" version="1.1" width="24" height="24" viewBox="0 0 24 24"><defs><clipPath id="master_svg0_88_0653"><rect x="6" y="4" width="12" height="16" rx="0"/></clipPath></defs><g><rect x="0" y="0" width="24" height="24" rx="12" fill="#1F2937" fill-opacity="1" style="mix-blend-mode:passthrough"/><g clip-path="url(#master_svg0_88_0653)"><g transform="matrix(1,0,0,-1,0,38.687469482421875)"><g><path d="M12.992370859375,33.34373474121094Q11.038880859375,33.31253474121094,9.488490859375,32.374934741210936Q7.907100859375,31.468734741210938,6.976863859375,29.874934741210936Q6.077638659375,28.312484741210938,6.046630859375,26.343734741210938Q6.077638659375,24.374984741210938,7.007870859375,22.812484741210938Q7.907100859375,21.218734741210938,9.488490859375,20.312484741210938Q11.038880859375,19.374984741210938,12.992370859375,19.343734741210938Q15.876090859375,19.406234741210938,17.798530859375,21.312484741210938Q18.046630859375,21.593734741210938,17.891630859375,21.906234741210938Q17.736530859375,22.218734741210938,17.364430859375,22.187484741210938Q16.930330859374997,22.093734741210938,16.434230859375,22.093734741210938Q14.139650859375,22.156234741210938,12.589270859374999,23.718734741210938Q11.069890859375,25.249984741210938,11.007870859375,27.593734741210938Q11.007870859375,29.156234741210938,11.752060859375,30.406234741210938Q12.527250859375,31.656234741210938,13.767560859375,32.374934741210936Q14.077640859375,32.56253474121094,14.015620859375,32.93753474121094Q13.922600859374999,33.249934741210936,13.550510859374999,33.31253474121094Q13.271440859375,33.34373474121094,12.961360859374999,33.34373474121094L12.992370859375,33.34373474121094Z" fill="#F3F4F6" fill-opacity="1" style="mix-blend-mode:passthrough"/></g></g></g></g></svg>