<svg xmlns="http://www.w3.org/2000/svg" xmlns:xlink="http://www.w3.org/1999/xlink" fill="none" version="1.1" width="122.59375" height="36" viewBox="0 0 122.59375 36"><g><rect x="0" y="0" width="122.59375" height="36" rx="0" fill="#000000" fill-opacity="0" style="mix-blend-mode:passthrough"/><g><rect x="0" y="14" width="8" height="8" rx="0" fill="#0068B5" fill-opacity="1" style="mix-blend-mode:passthrough"/></g><g><rect x="16" y="0" width="90.59375" height="36" rx="0" fill="#000000" fill-opacity="0" style="mix-blend-mode:passthrough"/><g><rect x="16" y="0" width="59.0625" height="35" rx="0" fill="#000000" fill-opacity="0" style="mix-blend-mode:passthrough"/><g><path d="M22.09169,12.1504L22.09169,28L17.85829,28L17.85829,12.1504L22.09169,12.1504ZM17.5937,8.02571Q17.5937,7.09851,18.23961,6.49564Q18.88574,5.89253,19.96469,5.89253Q21.03883,5.89253,21.68954,6.49564Q22.34026,7.09851,22.34026,8.02571Q22.34026,8.94353,21.68954,9.54411Q21.03883,10.1447,19.96469,10.1447Q18.88574,10.1447,18.23961,9.54411Q17.5937,8.94353,17.5937,8.02571ZM29.7075,15.5342L29.7075,28L25.48875,28L25.48875,12.1504L29.4518,12.1504L29.7075,15.5342ZM29.102600000000002,19.5142L27.954700000000003,19.5199Q27.9595,17.7651,28.4084,16.3511Q28.8572,14.9368,29.6771,13.9313Q30.4969,12.9258,31.6363,12.3916Q32.7759,11.8574,34.171800000000005,11.8574Q35.2941,11.8574,36.2167,12.1774Q37.1393,12.4971,37.805800000000005,13.2055Q38.472300000000004,13.9139,38.8287,15.0647Q39.1853,16.2156,39.1853,17.8921L39.1853,28L34.942,28L34.942,17.8729Q34.942,16.8262,34.645399999999995,16.2405Q34.3488,15.6548,33.7846,15.4149Q33.2204,15.1748,32.4033,15.1748Q31.5614,15.1748,30.9373,15.5104Q30.3131,15.8457,29.9082,16.4389Q29.5036,17.0322,29.3031,17.818Q29.102600000000002,18.6037,29.102600000000002,19.5142ZM50.1618,12.1504L50.1618,15.1437L40.9273,15.1437L40.9273,12.1504L50.1618,12.1504ZM43.222300000000004,8.23834L47.441,8.23834L47.441,23.2306Q47.441,23.9172,47.6205,24.2827Q47.800200000000004,24.648,48.1707,24.7849Q48.5415,24.9218,49.0947,24.9218Q49.4914,24.9218,49.8004,24.8856Q50.1093,24.8494,50.3394,24.8055L50.3442,27.9107Q49.8134,28.0826,49.1792,28.1877Q48.5452,28.293,47.783,28.293Q46.3898,28.293,45.3612,27.8281Q44.3328,27.363,43.7776,26.3385Q43.222300000000004,25.3141,43.222300000000004,23.6428L43.222300000000004,8.23834ZM59.8377,28.293Q57.9939,28.293,56.5295,27.6992Q55.0651,27.1055,54.0459,26.0504Q53.0269,24.9952,52.4893,23.5988Q51.9518,22.2024,51.9518,20.6119L51.9518,20.0365Q51.9518,18.2318,52.4636,16.7356Q52.9754,15.2394,53.9369,14.1451Q54.8985,13.0506,56.2727,12.4541Q57.6469,11.8574,59.3669,11.8574Q61.0563,11.8574,62.3586,12.4136Q63.661,12.9698,64.5463,13.9924Q65.4316,15.0148,65.8869,16.4433Q66.3421,17.8717,66.3421,19.6211L66.3421,21.373L53.7518,21.373L53.7518,18.5655L62.2028,18.5655L62.2028,18.2412Q62.1938,17.3652,61.8798,16.6669Q61.566,15.9686,60.9389,15.5623Q60.312,15.1558,59.3372,15.1558Q58.4937,15.1558,57.8911,15.5193Q57.2885,15.8828,56.9154,16.5403Q56.5423,17.1977,56.3638,18.088Q56.1852,18.9782,56.1852,20.0365L56.1852,20.6119Q56.1852,21.5712,56.4505,22.3764Q56.7158,23.1816,57.2244,23.7648Q57.7332,24.348,58.4557,24.6737Q59.1786,24.9991,60.1032,24.9991Q61.2509,24.9991,62.2371,24.5521Q63.2234,24.1051,63.9407,23.1933L65.98830000000001,25.42Q65.4952,26.1369,64.6397,26.8004Q63.7843,27.4637,62.5797,27.8785Q61.3751,28.293,59.8377,28.293ZM73.20009999999999,5.5L73.20009999999999,28L68.9667,28L68.9667,5.5L73.20009999999999,5.5Z" fill="#0068B5" fill-opacity="1" style="mix-blend-mode:passthrough"/></g></g><g><path d="" fill="#000000" fill-opacity="1" style="mix-blend-mode:passthrough"/></g><g><rect x="82.546875" y="0" width="24.046875" height="35" rx="0" fill="#000000" fill-opacity="0" style="mix-blend-mode:passthrough"/><g><path d="M92.746975,24.4265L92.746975,17.3691Q92.746975,16.6102,92.49751499999999,16.0583Q92.248265,15.5065,91.72938500000001,15.2Q91.210515,14.8935,90.389965,14.8935Q89.682035,14.8935,89.166135,15.1359Q88.650235,15.3783,88.371915,15.8207Q88.093595,16.2629,88.093595,16.8725L83.875075,16.8725Q83.875075,15.8542,84.349095,14.9448Q84.823335,14.0352,85.710475,13.3392Q86.597855,12.6432,87.841825,12.2504Q89.085805,11.8574,90.62045499999999,11.8574Q92.458145,11.8574,93.892975,12.4731Q95.327875,13.0888,96.156675,14.3177Q96.985675,15.5465,96.985675,17.3984L96.985675,24.1756Q96.985675,25.4828,97.149575,26.312Q97.313675,27.141,97.621675,27.7558L97.621675,28L93.355375,28Q93.050975,27.3525,92.89897500000001,26.3804Q92.746975,25.4081,92.746975,24.4265ZM93.305275,18.341L93.334575,20.7415L90.972475,20.7415Q90.132705,20.7415,89.517245,20.9296Q88.902005,21.1178,88.509935,21.4592Q88.118085,21.8005,87.929715,22.2555Q87.741575,22.7105,87.741575,23.2544Q87.741575,23.7929,87.994035,24.2246Q88.246715,24.6563,88.714325,24.9012Q89.182155,25.1458,89.811125,25.1458Q90.768315,25.1458,91.467315,24.7625Q92.166325,24.3789,92.556575,23.8257Q92.947075,23.2722,92.961275,22.7728L94.068775,24.5629Q93.837175,25.1584,93.437575,25.8062Q93.038175,26.4539,92.422665,27.016Q91.807205,27.5782,90.938145,27.9357Q90.069305,28.293,88.889415,28.293Q87.377425,28.293,86.158855,27.683Q84.940525,27.0728,84.229385,26.0009Q83.51825,24.9291,83.51825,23.5512Q83.51825,22.3066,83.981505,21.3375Q84.444765,20.3682,85.362355,19.7014Q86.280165,19.0347,87.658035,18.6879Q89.035905,18.341,90.850475,18.341L93.305275,18.341ZM104.693275,12.1504L104.693275,28L100.459875,28L100.459875,12.1504L104.693275,12.1504ZM100.195275,8.02571Q100.195275,7.09851,100.84117499999999,6.49564Q101.487275,5.89253,102.566275,5.89253Q103.640375,5.89253,104.291075,6.49564Q104.941775,7.09851,104.941775,8.02571Q104.941775,8.94353,104.291075,9.54411Q103.640375,10.1447,102.566275,10.1447Q101.487275,10.1447,100.84117499999999,9.54411Q100.195275,8.94353,100.195275,8.02571Z" fill="#00B0F0" fill-opacity="1" style="mix-blend-mode:passthrough"/></g></g></g><g><rect x="114.59375" y="14" width="8" height="8" rx="0" fill="#00B0F0" fill-opacity="1" style="mix-blend-mode:passthrough"/></g></g></svg>