<svg xmlns="http://www.w3.org/2000/svg" xmlns:xlink="http://www.w3.org/1999/xlink" fill="none" version="1.1" width="24" height="24" viewBox="0 0 24 24"><defs><clipPath id="master_svg0_88_0643"><rect x="4" y="4" width="16" height="16" rx="0"/></clipPath></defs><g><rect x="0" y="0" width="24" height="24" rx="12" fill="#FFFFFF" fill-opacity="1" style="mix-blend-mode:passthrough"/><g clip-path="url(#master_svg0_88_0643)"><g transform="matrix(1,0,0,-1,0,40.695343017578125)"><g><path d="M15.3488171875,36.320371508789066Q15.5658171875,36.195371508789066,15.6279171875,35.945371508789066L16.2480171875,32.570371508789066L19.5968171875,31.945371508789062Q19.844917187500002,31.882871508789062,19.9689171875,31.664071508789064Q20.0620171875,31.414071508789064,19.9069171875,31.164071508789064L17.9844171875,28.35158150878906L19.9069171875,25.539081508789064Q20.0620171875,25.289081508789064,19.9689171875,25.039081508789064Q19.844917187500002,24.820331508789064,19.5968171875,24.757831508789064L16.2480171875,24.132831508789064L15.6279171875,20.757827508789063Q15.5658171875,20.507827508789063,15.3488171875,20.382827708789062Q15.1007171875,20.289077808789063,14.8527171875,20.445327708789062L12.0619771875,22.382831508789064L9.2712771875,20.445327708789062Q9.0232171875,20.289077808789063,8.8061671875,20.382827708789062Q8.5580971875,20.507827508789063,8.496087187499999,20.757827508789063L7.8759271875,24.132831508789064L4.5270941875,24.757831508789064Q4.2790321875,24.820331508789064,4.1550008875,25.039081508789064Q4.0619776875,25.289081508789064,4.2170163875,25.539081508789064L6.1394971875,28.35158150878906L4.2170163875,31.164071508789064Q4.0619776875,31.414071508789064,4.1550008875,31.632871508789062Q4.2790321875,31.882871508789062,4.5270941875,31.945371508789062L7.8759271875,32.570371508789066L8.496087187499999,35.945371508789066Q8.5580971875,36.195371508789066,8.8061671875,36.320371508789066Q9.0232171875,36.414071508789064,9.2712771875,36.257871508789066L12.0619771875,34.320371508789066L14.8527171875,36.257871508789066Q15.1007171875,36.414071508789064,15.3488171875,36.320371508789066ZM9.085237187499999,28.35158150878906Q9.085237187499999,29.16408150878906,9.4883371875,29.85158150878906Q9.8914371875,30.539071508789064,10.5736071875,30.945371508789062Q11.2867871875,31.351571508789064,12.0619771875,31.351571508789064Q12.8371671875,31.351571508789064,13.5503471875,30.945371508789062Q14.2325171875,30.539071508789064,14.6356171875,29.85158150878906Q15.0387171875,29.16408150878906,15.0387171875,28.35158150878906Q15.0387171875,27.539081508789064,14.6356171875,26.851581508789064Q14.2325171875,26.164081508789064,13.5503471875,25.757831508789064Q12.8371671875,25.351581508789064,12.0619771875,25.351581508789064Q11.2867871875,25.351581508789064,10.5736071875,25.757831508789064Q9.8914371875,26.164081508789064,9.4883371875,26.851581508789064Q9.085237187499999,27.539081508789064,9.085237187499999,28.35158150878906ZM16.031017187499998,28.35158150878906Q16.031017187499998,29.44533150878906,15.5038171875,30.351571508789064Q14.9767171875,31.257871508789062,14.0464771875,31.820371508789062Q13.1162371875,32.351571508789064,12.0619771875,32.351571508789064Q11.007717187499999,32.351571508789064,10.077477187500001,31.820371508789062Q9.1472471875,31.257871508789062,8.6201171875,30.351571508789064Q8.0929871875,29.44533150878906,8.0929871875,28.35158150878906Q8.0929871875,27.257831508789064,8.6201171875,26.351581508789064Q9.1472471875,25.445331508789064,10.077477187500001,24.882831508789064Q11.007717187499999,24.351581508789064,12.0619771875,24.351581508789064Q13.1162371875,24.351581508789064,14.0464771875,24.882831508789064Q14.9767171875,25.445331508789064,15.5038171875,26.351581508789064Q16.031017187499998,27.257831508789064,16.031017187499998,28.35158150878906Z" fill="#FCD34D" fill-opacity="1" style="mix-blend-mode:passthrough"/></g></g></g></g></svg>