<svg xmlns="http://www.w3.org/2000/svg" xmlns:xlink="http://www.w3.org/1999/xlink" fill="none" version="1.1" width="10.5" height="14" viewBox="0 0 10.5 14"><defs><clipPath id="master_svg0_2_264"><rect x="0" y="0" width="10.5" height="14" rx="0"/></clipPath></defs><g clip-path="url(#master_svg0_2_264)"><g transform="matrix(1,0,0,-1,0,28.6015625)"><g><path d="M7.63636,17.80078125Q8.14347,19.05859125,9.09801,20.12500125Q9.09801,20.15234125,9.09801,20.15234125Q9.33665,20.45312125,9.57528,20.75390125Q10.4702,21.92969125,10.5,23.48828125Q10.4403,25.539081250000002,8.94886,26.87888125Q7.48722,28.24608125,5.25,28.30078125Q3.01278,28.24608125,1.55114,26.87888125Q0.0596591,25.539081250000002,0,23.48828125Q0.0298295,21.92969125,0.924716,20.75390125Q1.16335,20.45312125,1.40199,20.17969125Q1.40199,20.15234125,1.40199,20.15234125Q2.35653,19.08594125,2.86364,17.80078125L7.63636,17.80078125ZM5.25,14.30078125Q6.2642,14.32812505,6.95028,14.92968725Q7.60653,15.55859125,7.63636,16.48828125L7.63636,16.92578125L2.86364,16.92578125L2.86364,16.48828125Q2.89347,15.55859125,3.54972,14.92968725Q4.2358,14.32812505,5.25,14.30078125ZM2.86364,23.48828125Q2.83381,23.078121250000002,2.38636,23.05078125Q1.93892,23.078121250000002,1.90909,23.48828125Q1.93892,24.80078125,2.89347,25.64848125Q3.81818,26.52348125,5.25,26.55078125Q5.69744,26.52348125,5.72727,26.11328125Q5.69744,25.70308125,5.25,25.67578125Q4.2358,25.64848125,3.54972,25.04688125Q2.89347,24.41798125,2.86364,23.48828125Z" fill="#EAB308" fill-opacity="1" style="mix-blend-mode:passthrough"/></g></g></g></svg>