<?xml version="1.0" standalone="no"?><!DOCTYPE svg PUBLIC "-//W3C//DTD SVG 1.1//EN" "http://www.w3.org/Graphics/SVG/1.1/DTD/svg11.dtd"><svg t="1736912622846" class="icon" viewBox="0 0 1024 1024" version="1.1" xmlns="http://www.w3.org/2000/svg" p-id="1753" xmlns:xlink="http://www.w3.org/1999/xlink" width="200" height="200"><path d="M692.312 956.978c-59.656 0-112.963-25.778-148.221-66.23H214.286V133.034h400.115v187.818h197.413v310.98c42.357 31.932 70.176 80.457 72.544 135.214v-510.52L674.346 64.223H141.742v895.335h742.615V782.244c-4.202 97.174-88.568 174.734-192.045 174.734z" fill="#666666" p-id="1754"></path><path d="M301.326 418.477h437.601v67.091H301.326zM301.326 578.493h219.957v67.091H301.326zM301.326 738.509h138.34V805.6h-138.34z" fill="#666666" p-id="1755"></path><path d="M811.814 631.832c-32.811-24.735-74.334-39.519-119.502-39.519-106.162 0-192.224 81.633-192.224 182.333 0 44.113 16.517 84.567 44.003 116.103 35.258 40.452 88.565 66.23 148.221 66.23 103.477 0 187.843-77.56 192.045-174.734 0.109-2.521 0.179-5.052 0.179-7.599s-0.07-5.078-0.179-7.599c-2.368-54.759-30.186-103.283-72.543-135.215zM660.869 888.809l-38.472-36.492 0.92-0.872-69.159-65.6 38.472-36.492 69.159 65.6 130.205-123.505 38.472 36.492-169.597 160.869z" fill="#50A135" p-id="1756"></path><path d="M791.994 691.447L661.789 814.952l-69.159-65.6-38.472 36.492 69.159 65.6-0.92 0.873 38.472 36.492L830.466 727.94z" fill="#FFFFFF" p-id="1757"></path></svg>